<svg width="72" height="72" viewBox="0 0 72 72" fill="none" xmlns="http://www.w3.org/2000/svg">
<path d="M0 2C0 0.895431 0.895431 0 2 0H70C71.1046 0 72 0.895431 72 2V70C72 71.1046 71.1046 72 70 72H2C0.895431 72 0 71.1046 0 70V2Z" fill="#E5E5EA"/>
<path d="M29 35.1L31 33.1L36.5 38.6L40 35.1L43 38.1V29H29V35.1ZM28 27H44C44.2652 27 44.5196 27.1054 44.7071 27.2929C44.8946 27.4804 45 27.7348 45 28V44C45 44.2652 44.8946 44.5196 44.7071 44.7071C44.5196 44.8946 44.2652 45 44 45H28C27.7348 45 27.4804 44.8946 27.2929 44.7071C27.1054 44.5196 27 44.2652 27 44V28C27 27.7348 27.1054 27.4804 27.2929 27.2929C27.4804 27.1054 27.7348 27 28 27V27ZM39.5 34C39.1022 34 38.7206 33.842 38.4393 33.5607C38.158 33.2794 38 32.8978 38 32.5C38 32.1022 38.158 31.7206 38.4393 31.4393C38.7206 31.158 39.1022 31 39.5 31C39.8978 31 40.2794 31.158 40.5607 31.4393C40.842 31.7206 41 32.1022 41 32.5C41 32.8978 40.842 33.2794 40.5607 33.5607C40.2794 33.842 39.8978 34 39.5 34V34Z" fill="white" fill-opacity="0.6"/>
</svg>
