<svg
   width="24px"
   height="24px"
   viewBox="0 0 24 24"
   xmlns="http://www.w3.org/2000/svg"
>
  <g>
    <path
       style="fill:none;stroke:#000000;stroke-width:4.166666666666667px;"
       d="M 0,50 C 0,35 5,35 15,35 15,35 5,25 15,15 25,5 35,15 35,15 35,15 40,0 50,0 c 10,0 15,15 15,15 0,0 10,-10 20,0 10,10 0,20 0,20 0,0 15,0 15,15 0,15 -15,15 -15,15 0,0 10,15 0,25 -10,10 -20,-5 -20,-5 0,0 -5,15 -15,15 C 40,100 35,85 35,85 35,85 25,100 15,90 5,80 15,65 15,65 15,65 0,65 0,50 Z"
       transform="translate(1,1) scale(0.22)"
    />
  </g>
</svg>
